<svg width="36" height="14" viewBox="0 0 36 14" fill="none" xmlns="http://www.w3.org/2000/svg">
<path fill-rule="evenodd" clip-rule="evenodd" d="M12.3083 0.875H1.69167C1.2425 0.875 0.875 1.2425 0.875 1.69167V9.04167C0.875 9.49083 1.2425 9.85833 1.69167 9.85833H3.325V12.3083C3.325 12.7575 3.6925 13.125 4.14167 13.125C4.37033 13.125 4.5745 13.0352 4.7215 12.8882L7.74317 9.85833H12.3083C12.7575 9.85833 13.125 9.49083 13.125 9.04167V1.69167C13.125 1.2425 12.7575 0.875 12.3083 0.875Z" fill="#8F95B2"/>
<path d="M21.4588 2.72727V10H20.358V3.82812H20.3153L18.5753 4.96449V3.91335L20.3899 2.72727H21.4588ZM23.4261 10V9.20455L25.8871 6.65483C26.1499 6.37784 26.3665 6.13518 26.5369 5.92685C26.7098 5.71615 26.8388 5.5161 26.924 5.3267C27.0092 5.13731 27.0518 4.93608 27.0518 4.72301C27.0518 4.48153 26.995 4.2732 26.8814 4.09801C26.7678 3.92045 26.6127 3.78433 26.4162 3.68963C26.2197 3.59257 25.9983 3.54403 25.7521 3.54403C25.4917 3.54403 25.2644 3.5973 25.0703 3.70384C24.8762 3.81037 24.727 3.9607 24.6229 4.15483C24.5187 4.34896 24.4666 4.57623 24.4666 4.83665H23.419C23.419 4.39394 23.5208 4.00687 23.7244 3.67543C23.928 3.34399 24.2074 3.08712 24.5625 2.90483C24.9176 2.72017 25.3213 2.62784 25.7734 2.62784C26.2304 2.62784 26.6328 2.71899 26.9808 2.90128C27.3312 3.0812 27.6046 3.32741 27.8011 3.63991C27.9976 3.95005 28.0959 4.30043 28.0959 4.69105C28.0959 4.96094 28.045 5.22491 27.9432 5.48295C27.8438 5.741 27.6697 6.02865 27.4212 6.34588C27.1726 6.66075 26.8269 7.04309 26.3842 7.4929L24.9389 9.00568V9.05895H28.2131V10H23.4261ZM31.9595 10.0994C31.5144 10.0994 31.1143 10.0142 30.7592 9.84375C30.4065 9.67093 30.1248 9.43419 29.9141 9.13352C29.7034 8.83286 29.5909 8.48958 29.5767 8.10369H30.642C30.6681 8.41619 30.8066 8.67306 31.0575 8.87429C31.3085 9.07552 31.6091 9.17614 31.9595 9.17614C32.2389 9.17614 32.4863 9.11222 32.7017 8.98438C32.9195 8.85417 33.09 8.67543 33.2131 8.44815C33.3385 8.22088 33.4013 7.96165 33.4013 7.67045C33.4013 7.37453 33.3374 7.11056 33.2095 6.87855C33.0817 6.64654 32.9053 6.46425 32.6804 6.33168C32.4579 6.1991 32.2022 6.13163 31.9134 6.12926C31.6932 6.12926 31.4718 6.16714 31.2493 6.2429C31.0268 6.31866 30.8468 6.41809 30.7095 6.54119L29.7045 6.39205L30.1129 2.72727H34.1115V3.66832H31.0256L30.7947 5.70312H30.8374C30.9794 5.56581 31.1676 5.45099 31.402 5.35866C31.6387 5.26634 31.892 5.22017 32.1619 5.22017C32.6046 5.22017 32.9988 5.32552 33.3445 5.53622C33.6925 5.74692 33.9659 6.03456 34.1648 6.39915C34.366 6.76136 34.4654 7.17803 34.4631 7.64915C34.4654 8.12027 34.3589 8.54048 34.1435 8.9098C33.9304 9.27912 33.6345 9.57031 33.2557 9.78338C32.8793 9.99408 32.4472 10.0994 31.9595 10.0994Z" fill="#8F95B2"/>
</svg>
