<svg width="33" height="16" viewBox="0 0 33 16" fill="none" xmlns="http://www.w3.org/2000/svg">
<path fill-rule="evenodd" clip-rule="evenodd" d="M2 2H0V9H2C2.55 9 3 8.55 3 8V3C3 2.45 2.55 2 2 2ZM15.99 6.38C16.07 5.8 15.55 5.36 14.84 5.33C14.59 5.32 14.32 5.3 14.03 5.28C14.05 5.28 14.08 5.27 14.1 5.27C14.8 5.17 15.44 4.78 15.51 4.2C15.57 3.62 15.05 3.23 14.34 3.16C14.09 3.14 13.82 3.12 13.55 3.1C14.02 2.95 14.39 2.68 14.42 2.17C14.46 1.59 13.63 1.14 12.92 1.08C12.65 1.06 12.41 1.04 12.19 1.03C12.16 1.03 12.13 1.03 12.1 1.03C11.87 1.01 11.67 1.01 11.48 0.999998C8.35 0.949998 5.66 1.47 4 2.51V8.51C6.14 9.8 8.76 12.1 8.21 14.02C8.03 14.61 8.52 15.07 9.19 15C10 14.91 10.56 14.09 10.59 13.22C10.63 12.22 10.44 11.21 10.09 10.31C10.05 10.06 10.1 9.81 10.46 9.78C10.95 9.75 11.57 9.72 12.05 9.7C12.31 9.7 12.56 9.69 12.8 9.68H12.81C13.22 9.66 13.61 9.63 13.94 9.59C14.64 9.5 15.29 9.12 15.37 8.54C15.45 7.96 14.93 7.57 14.22 7.49C14.17 7.48 14.11 7.48 14.06 7.47C14.23 7.46 14.39 7.44 14.55 7.42C15.27 7.34 15.92 6.96 15.99 6.38Z" fill="#8F95B2"/>
<path d="M23.2315 10.1207C22.6705 10.1184 22.1911 9.97041 21.7933 9.67685C21.3956 9.38329 21.0914 8.95597 20.8807 8.39489C20.67 7.83381 20.5646 7.15791 20.5646 6.36719C20.5646 5.57884 20.67 4.9053 20.8807 4.34659C21.0938 3.78788 21.3991 3.36174 21.7969 3.06818C22.197 2.77462 22.6752 2.62784 23.2315 2.62784C23.7879 2.62784 24.2649 2.7758 24.6626 3.07173C25.0604 3.36529 25.3646 3.79143 25.5753 4.35014C25.7884 4.90649 25.8949 5.57884 25.8949 6.36719C25.8949 7.16027 25.7895 7.83736 25.5788 8.39844C25.3681 8.95715 25.0639 9.38447 24.6662 9.6804C24.2685 9.97396 23.7902 10.1207 23.2315 10.1207ZM23.2315 9.17259C23.724 9.17259 24.1087 8.93229 24.3857 8.4517C24.665 7.97112 24.8047 7.27628 24.8047 6.36719C24.8047 5.76349 24.7408 5.25331 24.6129 4.83665C24.4875 4.41761 24.3063 4.10038 24.0696 3.88494C23.8352 3.66714 23.5559 3.55824 23.2315 3.55824C22.7415 3.55824 22.3568 3.79972 22.0774 4.28267C21.7981 4.76562 21.6572 5.46046 21.6548 6.36719C21.6548 6.97325 21.7176 7.4858 21.843 7.90483C21.9709 8.3215 22.152 8.63755 22.3864 8.85298C22.6207 9.06605 22.9025 9.17259 23.2315 9.17259ZM27.1547 10V9.20455L29.6156 6.65483C29.8784 6.37784 30.095 6.13518 30.2654 5.92685C30.4383 5.71615 30.5673 5.5161 30.6525 5.3267C30.7377 5.13731 30.7804 4.93608 30.7804 4.72301C30.7804 4.48153 30.7235 4.2732 30.6099 4.09801C30.4963 3.92045 30.3412 3.78433 30.1447 3.68963C29.9482 3.59257 29.7269 3.54403 29.4806 3.54403C29.2202 3.54403 28.993 3.5973 28.7988 3.70384C28.6047 3.81037 28.4556 3.9607 28.3514 4.15483C28.2472 4.34896 28.1951 4.57623 28.1951 4.83665H27.1475C27.1475 4.39394 27.2493 4.00687 27.4529 3.67543C27.6565 3.34399 27.9359 3.08712 28.291 2.90483C28.6461 2.72017 29.0498 2.62784 29.502 2.62784C29.9589 2.62784 30.3613 2.71899 30.7093 2.90128C31.0597 3.0812 31.3332 3.32741 31.5297 3.63991C31.7261 3.95005 31.8244 4.30043 31.8244 4.69105C31.8244 4.96094 31.7735 5.22491 31.6717 5.48295C31.5723 5.741 31.3983 6.02865 31.1497 6.34588C30.9011 6.66075 30.5555 7.04309 30.1127 7.4929L28.6674 9.00568V9.05895H31.9416V10H27.1547Z" fill="#8F95B2"/>
</svg>
