<svg width="33" height="14" viewBox="0 0 33 14" fill="none" xmlns="http://www.w3.org/2000/svg">
<path fill-rule="evenodd" clip-rule="evenodd" d="M15.99 8.62705C15.91 8.04705 15.26 7.66705 14.56 7.57705C14.41 7.55705 14.24 7.53705 14.07 7.52705C14.13 7.51705 14.18 7.51705 14.23 7.50705C14.94 7.42705 15.46 7.03705 15.38 6.45705C15.3 5.87705 14.65 5.49705 13.95 5.40705C13.61 5.36705 13.23 5.33705 12.82 5.31705C12.82 5.31705 12.82 5.31705 12.81 5.31705C12.57 5.30705 12.32 5.29705 12.06 5.29705C11.58 5.27705 10.95 5.25705 10.47 5.21705C10.11 5.18705 10.06 4.93705 10.1 4.68705C10.45 3.78705 10.64 2.77705 10.6 1.77705C10.56 0.927054 10 0.0970537 9.19 0.00705369C8.52 -0.0629463 8.03 0.397054 8.2 0.987054C8.76 2.91705 6.13 5.20705 4 6.49705V12.4971C5.66 13.5271 8.35 14.0571 11.48 13.9971C11.67 13.9971 11.87 13.9871 12.1 13.9771C12.13 13.9771 12.16 13.9771 12.19 13.9771C12.41 13.9671 12.65 13.9471 12.92 13.9271C13.63 13.8671 14.46 13.4171 14.42 12.8371C14.39 12.3271 14.02 12.0471 13.55 11.9071C13.82 11.8871 14.09 11.8671 14.34 11.8471C15.05 11.7871 15.58 11.3971 15.51 10.8071C15.45 10.2271 14.81 9.83705 14.1 9.73705C14.08 9.73705 14.05 9.72705 14.03 9.72705C14.32 9.70705 14.6 9.69705 14.84 9.67705C15.55 9.64705 16.07 9.20705 15.99 8.62705ZM2 6.00705H0V13.0071H2C2.55 13.0071 3 12.5571 3 12.0071V7.00705C3 6.44705 2.55 6.00705 2 6.00705Z" fill="#8F95B2"/>
<path d="M20.6976 12.0016V11.2062L23.1586 8.65647C23.4213 8.37948 23.638 8.13682 23.8084 7.92849C23.9812 7.71779 24.1103 7.51774 24.1955 7.32834C24.2807 7.13895 24.3233 6.93772 24.3233 6.72465C24.3233 6.48317 24.2665 6.27484 24.1529 6.09965C24.0392 5.92209 23.8842 5.78597 23.6877 5.69127C23.4912 5.59421 23.2698 5.54567 23.0236 5.54567C22.7632 5.54567 22.5359 5.59894 22.3418 5.70548C22.1477 5.81201 21.9985 5.96234 21.8944 6.15647C21.7902 6.3506 21.7381 6.57787 21.7381 6.83829H20.6905C20.6905 6.39558 20.7923 6.00851 20.9959 5.67707C21.1995 5.34563 21.4789 5.08876 21.834 4.90647C22.1891 4.72181 22.5927 4.62948 23.0449 4.62948C23.5018 4.62948 23.9043 4.72063 24.2523 4.90292C24.6027 5.08284 24.8761 5.32905 25.0726 5.64155C25.2691 5.95169 25.3674 6.30207 25.3674 6.69269C25.3674 6.96258 25.3165 7.22655 25.2147 7.48459C25.1152 7.74264 24.9412 8.03029 24.6926 8.34752C24.4441 8.66239 24.0984 9.04473 23.6557 9.49454L22.2104 11.0073V11.0606H25.4846V12.0016H20.6976ZM26.5215 10.5812V9.6934L29.6642 4.72891H30.3638V6.03573H29.9199L27.6721 9.59397V9.65079H31.9796V10.5812H26.5215ZM29.9696 12.0016V10.3113L29.9767 9.90647V4.72891H31.0172V12.0016H29.9696Z" fill="#8F95B2"/>
</svg>
