<svg width="51" height="14" viewBox="0 0 52 14" fill="none" xmlns="http://www.w3.org/2000/svg">
<rect x="0.25" y="0.25" width="51.5" height="13.5" rx="6.75" fill="#FCDCEF"/>
<rect x="0.25" y="0.25" width="51.5" height="13.5" rx="6.75" stroke="#AD307B" stroke-width="0.5"/>
<path d="M10.4242 7.08523V10H9.46857V5.09091H10.3858V5.88991H10.4466C10.5595 5.62997 10.7363 5.42116 10.9771 5.26349C11.22 5.10582 11.5257 5.02699 11.8944 5.02699C12.2289 5.02699 12.5218 5.0973 12.7733 5.23793C13.0247 5.37642 13.2196 5.5831 13.3581 5.85795C13.4966 6.13281 13.5659 6.47266 13.5659 6.87749V10H12.6103V6.99254C12.6103 6.63672 12.5176 6.35866 12.3322 6.15838C12.1468 5.95597 11.8922 5.85476 11.5684 5.85476C11.3468 5.85476 11.1497 5.9027 10.9771 5.99858C10.8066 6.09446 10.6713 6.23509 10.5712 6.42045C10.4732 6.60369 10.4242 6.82528 10.4242 7.08523ZM16.9632 10.0991C16.4796 10.0991 16.063 9.99574 15.7136 9.78906C15.3663 9.58026 15.0978 9.28729 14.9082 8.91016C14.7207 8.53089 14.627 8.08665 14.627 7.57741C14.627 7.07457 14.7207 6.63139 14.9082 6.24787C15.0978 5.86435 15.362 5.56499 15.7008 5.34979C16.0417 5.13459 16.4402 5.02699 16.8961 5.02699C17.1731 5.02699 17.4416 5.0728 17.7015 5.16442C17.9615 5.25604 18.1948 5.39986 18.4015 5.59588C18.6081 5.7919 18.7711 6.04652 18.8904 6.35973C19.0098 6.67081 19.0694 7.04901 19.0694 7.49432V7.8331H15.1671V7.11719H18.133C18.133 6.86577 18.0819 6.64311 17.9796 6.44922C17.8773 6.2532 17.7335 6.09872 17.5481 5.9858C17.3649 5.87287 17.1497 5.81641 16.9025 5.81641C16.6341 5.81641 16.3997 5.88246 16.1994 6.01456C16.0012 6.14453 15.8478 6.31499 15.7392 6.52592C15.6326 6.73473 15.5794 6.96165 15.5794 7.20668V7.76598C15.5794 8.09411 15.6369 8.37322 15.752 8.60334C15.8691 8.83345 16.0321 9.00923 16.2409 9.13068C16.4498 9.25 16.6937 9.30966 16.9728 9.30966C17.1539 9.30966 17.3191 9.28409 17.4682 9.23295C17.6174 9.17969 17.7463 9.10085 17.8549 8.99645C17.9636 8.89205 18.0467 8.76314 18.1042 8.60973L19.0087 8.77273C18.9363 9.03906 18.8063 9.27237 18.6188 9.47266C18.4334 9.67081 18.2001 9.82528 17.9189 9.93608C17.6397 10.0447 17.3212 10.0991 16.9632 10.0991ZM22.4213 5.09091V5.85795H19.7398V5.09091H22.4213ZM20.4589 3.91477H21.4145V8.55859C21.4145 8.74396 21.4422 8.88352 21.4976 8.97727C21.553 9.06889 21.6244 9.13175 21.7117 9.16584C21.8012 9.1978 21.8982 9.21378 22.0026 9.21378C22.0793 9.21378 22.1464 9.20845 22.2039 9.1978C22.2615 9.18714 22.3062 9.17862 22.3382 9.17223L22.5107 9.96165C22.4553 9.98295 22.3765 10.0043 22.2742 10.0256C22.172 10.049 22.0441 10.0618 21.8907 10.0639C21.6393 10.0682 21.4049 10.0234 21.1876 9.92969C20.9703 9.83594 20.7945 9.69105 20.6602 9.49503C20.526 9.29901 20.4589 9.05291 20.4589 8.75675V3.91477ZM24.5426 10L23.098 5.09091H24.0856L25.0476 8.69602H25.0955L26.0607 5.09091H27.0483L28.0071 8.68004H28.055L29.0107 5.09091H29.9982L28.5568 10H27.582L26.5849 6.45561H26.5114L25.5142 10H24.5426ZM32.8235 10.0991C32.3633 10.0991 31.9616 9.99361 31.6186 9.78267C31.2756 9.57173 31.0092 9.27663 30.8196 8.89737C30.63 8.51811 30.5352 8.07493 30.5352 7.56783C30.5352 7.05859 30.63 6.61328 30.8196 6.23189C31.0092 5.8505 31.2756 5.55433 31.6186 5.34339C31.9616 5.13246 32.3633 5.02699 32.8235 5.02699C33.2837 5.02699 33.6854 5.13246 34.0284 5.34339C34.3714 5.55433 34.6378 5.8505 34.8274 6.23189C35.017 6.61328 35.1119 7.05859 35.1119 7.56783C35.1119 8.07493 35.017 8.51811 34.8274 8.89737C34.6378 9.27663 34.3714 9.57173 34.0284 9.78267C33.6854 9.99361 33.2837 10.0991 32.8235 10.0991ZM32.8267 9.29688C33.125 9.29688 33.3722 9.21804 33.5682 9.06037C33.7642 8.9027 33.9091 8.69283 34.0028 8.43075C34.0987 8.16868 34.1467 7.87997 34.1467 7.56463C34.1467 7.25142 34.0987 6.96378 34.0028 6.7017C33.9091 6.4375 33.7642 6.2255 33.5682 6.0657C33.3722 5.90589 33.125 5.82599 32.8267 5.82599C32.5263 5.82599 32.277 5.90589 32.0788 6.0657C31.8828 6.2255 31.7369 6.4375 31.641 6.7017C31.5472 6.96378 31.5004 7.25142 31.5004 7.56463C31.5004 7.87997 31.5472 8.16868 31.641 8.43075C31.7369 8.69283 31.8828 8.9027 32.0788 9.06037C32.277 9.21804 32.5263 9.29688 32.8267 9.29688ZM36.1785 10V5.09091H37.1022V5.87074H37.1533C37.2428 5.60653 37.4005 5.39879 37.6263 5.24751C37.8543 5.0941 38.1121 5.0174 38.3998 5.0174C38.4594 5.0174 38.5297 5.01953 38.6107 5.02379C38.6938 5.02805 38.7588 5.03338 38.8057 5.03977V5.95384C38.7673 5.94318 38.6991 5.93146 38.6011 5.91868C38.5031 5.90376 38.4051 5.89631 38.3071 5.89631C38.0812 5.89631 37.8799 5.94425 37.703 6.04013C37.5283 6.13388 37.3898 6.26491 37.2876 6.43324C37.1853 6.59943 37.1341 6.78906 37.1341 7.00213V10H36.1785ZM40.5115 8.33487L40.5051 7.16832H40.6713L42.6273 5.09091H43.7715L41.5407 7.45597H41.3904L40.5115 8.33487ZM39.6326 10V3.45455H40.5882V10H39.6326ZM42.7328 10L40.975 7.6669L41.6333 6.99893L43.9057 10H42.7328Z" fill="#821958"/>
</svg>
