<svg width="51" height="14" viewBox="0 0 43 14" fill="none" xmlns="http://www.w3.org/2000/svg">
<rect width="43" height="14" rx="7" fill="#F66A57"/>
<path d="M8.8006 11.8409V5.09091H9.73384V5.88672H9.81374C9.86914 5.78445 9.94904 5.66619 10.0534 5.53196C10.1578 5.39773 10.3027 5.28054 10.4881 5.1804C10.6735 5.07812 10.9185 5.02699 11.2232 5.02699C11.6195 5.02699 11.9732 5.12713 12.2843 5.32741C12.5953 5.5277 12.8393 5.81641 13.0162 6.19354C13.1951 6.57067 13.2846 7.0245 13.2846 7.55504C13.2846 8.08558 13.1962 8.54048 13.0194 8.91974C12.8425 9.29687 12.5996 9.58771 12.2907 9.79226C11.9817 9.99467 11.6291 10.0959 11.2328 10.0959C10.9345 10.0959 10.6905 10.0458 10.5009 9.94567C10.3134 9.84553 10.1664 9.72834 10.0598 9.59411C9.9533 9.45987 9.87127 9.34055 9.81374 9.23615H9.75621V11.8409H8.8006ZM9.73704 7.54545C9.73704 7.89062 9.78711 8.19318 9.88725 8.45312C9.98739 8.71307 10.1323 8.91655 10.3219 9.06357C10.5115 9.20845 10.7438 9.28089 11.0186 9.28089C11.3042 9.28089 11.5428 9.20526 11.7346 9.05398C11.9263 8.90057 12.0712 8.69283 12.1692 8.43075C12.2694 8.16868 12.3194 7.87358 12.3194 7.54545C12.3194 7.22159 12.2704 6.93075 12.1724 6.67294C12.0765 6.41513 11.9316 6.21165 11.7377 6.0625C11.546 5.91335 11.3063 5.83878 11.0186 5.83878C10.7417 5.83878 10.5073 5.91016 10.3155 6.05291C10.1259 6.19567 9.98207 6.39489 9.88406 6.65057C9.78604 6.90625 9.73704 7.20455 9.73704 7.54545ZM16.4231 10.0991C15.9629 10.0991 15.5613 9.99361 15.2182 9.78267C14.8752 9.57173 14.6088 9.27663 14.4192 8.89737C14.2296 8.51811 14.1348 8.07493 14.1348 7.56783C14.1348 7.05859 14.2296 6.61328 14.4192 6.23189C14.6088 5.8505 14.8752 5.55433 15.2182 5.34339C15.5613 5.13246 15.9629 5.02699 16.4231 5.02699C16.8833 5.02699 17.285 5.13246 17.628 5.34339C17.9711 5.55433 18.2374 5.8505 18.427 6.23189C18.6167 6.61328 18.7115 7.05859 18.7115 7.56783C18.7115 8.07493 18.6167 8.51811 18.427 8.89737C18.2374 9.27663 17.9711 9.57173 17.628 9.78267C17.285 9.99361 16.8833 10.0991 16.4231 10.0991ZM16.4263 9.29688C16.7246 9.29688 16.9718 9.21804 17.1678 9.06037C17.3638 8.9027 17.5087 8.69283 17.6025 8.43075C17.6983 8.16868 17.7463 7.87997 17.7463 7.56463C17.7463 7.25142 17.6983 6.96378 17.6025 6.7017C17.5087 6.4375 17.3638 6.2255 17.1678 6.0657C16.9718 5.90589 16.7246 5.82599 16.4263 5.82599C16.1259 5.82599 15.8766 5.90589 15.6784 6.0657C15.4824 6.2255 15.3365 6.4375 15.2406 6.7017C15.1468 6.96378 15.1 7.25142 15.1 7.56463C15.1 7.87997 15.1468 8.16868 15.2406 8.43075C15.3365 8.69283 15.4824 8.9027 15.6784 9.06037C15.8766 9.21804 16.1259 9.29688 16.4263 9.29688ZM20.693 10L19.2484 5.09091H20.236L21.198 8.69602H21.2459L22.2111 5.09091H23.1987L24.1575 8.68004H24.2054L25.161 5.09091H26.1486L24.7072 10H23.7324L22.7353 6.45561H22.6618L21.6646 10H20.693ZM29.0218 10.0991C28.5382 10.0991 28.1216 9.99574 27.7722 9.78906C27.4249 9.58026 27.1564 9.28729 26.9668 8.91016C26.7793 8.53089 26.6855 8.08665 26.6855 7.57741C26.6855 7.07457 26.7793 6.63139 26.9668 6.24787C27.1564 5.86435 27.4206 5.56499 27.7594 5.34979C28.1003 5.13459 28.4988 5.02699 28.9547 5.02699C29.2317 5.02699 29.5002 5.0728 29.7601 5.16442C30.0201 5.25604 30.2534 5.39986 30.46 5.59588C30.6667 5.7919 30.8297 6.04652 30.949 6.35973C31.0684 6.67081 31.128 7.04901 31.128 7.49432V7.8331H27.2257V7.11719H30.1916C30.1916 6.86577 30.1404 6.64311 30.0382 6.44922C29.9359 6.2532 29.7921 6.09872 29.6067 5.9858C29.4235 5.87287 29.2083 5.81641 28.9611 5.81641C28.6926 5.81641 28.4583 5.88246 28.258 6.01456C28.0598 6.14453 27.9064 6.31499 27.7978 6.52592C27.6912 6.73473 27.638 6.96165 27.638 7.20668V7.76598C27.638 8.09411 27.6955 8.37322 27.8105 8.60334C27.9277 8.83345 28.0907 9.00923 28.2995 9.13068C28.5083 9.25 28.7523 9.30966 29.0314 9.30966C29.2125 9.30966 29.3777 9.28409 29.5268 9.23295C29.676 9.17969 29.8049 9.10085 29.9135 8.99645C30.0222 8.89205 30.1053 8.76314 30.1628 8.60973L31.0673 8.77273C30.9949 9.03906 30.8649 9.27237 30.6774 9.47266C30.492 9.67081 30.2587 9.82528 29.9775 9.93608C29.6983 10.0447 29.3798 10.0991 29.0218 10.0991ZM32.1883 10V5.09091H33.1119V5.87074H33.1631C33.2526 5.60653 33.4102 5.39879 33.6361 5.24751C33.8641 5.0941 34.1219 5.0174 34.4095 5.0174C34.4692 5.0174 34.5395 5.01953 34.6205 5.02379C34.7036 5.02805 34.7686 5.03338 34.8154 5.03977V5.95384C34.7771 5.94318 34.7089 5.93146 34.6109 5.91868C34.5129 5.90376 34.4149 5.89631 34.3169 5.89631C34.091 5.89631 33.8896 5.94425 33.7128 6.04013C33.5381 6.13388 33.3996 6.26491 33.2973 6.43324C33.195 6.59943 33.1439 6.78906 33.1439 7.00213V10H32.1883Z" fill="#101012"/>
</svg>
