<svg width="118" height="18" viewBox="0 0 118 18" fill="none" xmlns="http://www.w3.org/2000/svg">
<path fill-rule="evenodd" clip-rule="evenodd" d="M15.99 8.62705C15.91 8.04705 15.26 7.66705 14.56 7.57705C14.41 7.55705 14.24 7.53705 14.07 7.52705C14.13 7.51705 14.18 7.51705 14.23 7.50705C14.94 7.42705 15.46 7.03705 15.38 6.45705C15.3 5.87705 14.65 5.49705 13.95 5.40705C13.61 5.36705 13.23 5.33705 12.82 5.31705C12.82 5.31705 12.82 5.31705 12.81 5.31705C12.57 5.30705 12.32 5.29705 12.06 5.29705C11.58 5.27705 10.95 5.25705 10.47 5.21705C10.11 5.18705 10.06 4.93705 10.1 4.68705C10.45 3.78705 10.64 2.77705 10.6 1.77705C10.56 0.927054 10 0.0970537 9.19 0.00705369C8.52 -0.0629463 8.03 0.397054 8.2 0.987054C8.76 2.91705 6.13 5.20705 4 6.49705V12.4971C5.66 13.5271 8.35 14.0571 11.48 13.9971C11.67 13.9971 11.87 13.9871 12.1 13.9771C12.13 13.9771 12.16 13.9771 12.19 13.9771C12.41 13.9671 12.65 13.9471 12.92 13.9271C13.63 13.8671 14.46 13.4171 14.42 12.8371C14.39 12.3271 14.02 12.0471 13.55 11.9071C13.82 11.8871 14.09 11.8671 14.34 11.8471C15.05 11.7871 15.58 11.3971 15.51 10.8071C15.45 10.2271 14.81 9.83705 14.1 9.73705C14.08 9.73705 14.05 9.72705 14.03 9.72705C14.32 9.70705 14.6 9.69705 14.84 9.67705C15.55 9.64705 16.07 9.20705 15.99 8.62705ZM2 6.00705H0V13.0071H2C2.55 13.0071 3 12.5571 3 12.0071V7.00705C3 6.44705 2.55 6.00705 2 6.00705Z" fill="#8F95B2"/>
<path d="M20.6976 12.0016V11.2062L23.1586 8.65647C23.4213 8.37948 23.638 8.13682 23.8084 7.92849C23.9812 7.71779 24.1103 7.51774 24.1955 7.32834C24.2807 7.13895 24.3233 6.93772 24.3233 6.72465C24.3233 6.48317 24.2665 6.27484 24.1529 6.09965C24.0392 5.92209 23.8842 5.78597 23.6877 5.69127C23.4912 5.59421 23.2698 5.54567 23.0236 5.54567C22.7632 5.54567 22.5359 5.59894 22.3418 5.70548C22.1477 5.81201 21.9985 5.96234 21.8944 6.15647C21.7902 6.3506 21.7381 6.57787 21.7381 6.83829H20.6905C20.6905 6.39558 20.7923 6.00851 20.9959 5.67707C21.1995 5.34563 21.4789 5.08876 21.834 4.90647C22.1891 4.72181 22.5927 4.62948 23.0449 4.62948C23.5018 4.62948 23.9043 4.72063 24.2523 4.90292C24.6027 5.08284 24.8761 5.32905 25.0726 5.64155C25.2691 5.95169 25.3674 6.30207 25.3674 6.69269C25.3674 6.96258 25.3165 7.22655 25.2147 7.48459C25.1152 7.74264 24.9412 8.03029 24.6926 8.34752C24.4441 8.66239 24.0984 9.04473 23.6557 9.49454L22.2104 11.0073V11.0606H25.4846V12.0016H20.6976ZM26.5215 10.5812V9.6934L29.6642 4.72891H30.3638V6.03573H29.9199L27.6721 9.59397V9.65079H31.9796V10.5812H26.5215ZM29.9696 12.0016V10.3113L29.9767 9.90647V4.72891H31.0172V12.0016H29.9696Z" fill="#8F95B2"/>
<path fill-rule="evenodd" clip-rule="evenodd" d="M43 4H41V11H43C43.55 11 44 10.55 44 10V5C44 4.45 43.55 4 43 4ZM56.99 8.38C57.07 7.8 56.55 7.36 55.84 7.33C55.59 7.32 55.32 7.3 55.03 7.28C55.05 7.28 55.08 7.27 55.1 7.27C55.8 7.17 56.44 6.78 56.51 6.2C56.57 5.62 56.05 5.23 55.34 5.16C55.09 5.14 54.82 5.12 54.55 5.1C55.02 4.95 55.39 4.68 55.42 4.17C55.46 3.59 54.63 3.14 53.92 3.08C53.65 3.06 53.41 3.04 53.19 3.03C53.16 3.03 53.13 3.03 53.1 3.03C52.87 3.01 52.67 3.01 52.48 3C49.35 2.95 46.66 3.47 45 4.51V10.51C47.14 11.8 49.76 14.1 49.21 16.02C49.03 16.61 49.52 17.07 50.19 17C51 16.91 51.56 16.09 51.59 15.22C51.63 14.22 51.44 13.21 51.09 12.31C51.05 12.06 51.1 11.81 51.46 11.78C51.95 11.75 52.57 11.72 53.05 11.7C53.31 11.7 53.56 11.69 53.8 11.68H53.81C54.22 11.66 54.61 11.63 54.94 11.59C55.64 11.5 56.29 11.12 56.37 10.54C56.45 9.96 55.93 9.57 55.22 9.49C55.17 9.48 55.11 9.48 55.06 9.47C55.23 9.46 55.39 9.44 55.55 9.42C56.27 9.34 56.92 8.96 56.99 8.38Z" fill="#8F95B2"/>
<path d="M64.2315 12.1207C63.6705 12.1184 63.1911 11.9704 62.7933 11.6768C62.3956 11.3833 62.0914 10.956 61.8807 10.3949C61.67 9.83381 61.5646 9.15791 61.5646 8.36719C61.5646 7.57884 61.67 6.9053 61.8807 6.34659C62.0938 5.78788 62.3991 5.36174 62.7969 5.06818C63.197 4.77462 63.6752 4.62784 64.2315 4.62784C64.7879 4.62784 65.2649 4.7758 65.6626 5.07173C66.0604 5.36529 66.3646 5.79143 66.5753 6.35014C66.7884 6.90649 66.8949 7.57884 66.8949 8.36719C66.8949 9.16027 66.7895 9.83736 66.5788 10.3984C66.3681 10.9571 66.0639 11.3845 65.6662 11.6804C65.2685 11.974 64.7902 12.1207 64.2315 12.1207ZM64.2315 11.1726C64.724 11.1726 65.1087 10.9323 65.3857 10.4517C65.665 9.97112 65.8047 9.27628 65.8047 8.36719C65.8047 7.76349 65.7408 7.25331 65.6129 6.83665C65.4875 6.41761 65.3063 6.10038 65.0696 5.88494C64.8352 5.66714 64.5559 5.55824 64.2315 5.55824C63.7415 5.55824 63.3568 5.79972 63.0774 6.28267C62.7981 6.76562 62.6572 7.46046 62.6548 8.36719C62.6548 8.97325 62.7176 9.4858 62.843 9.90483C62.9709 10.3215 63.152 10.6375 63.3864 10.853C63.6207 11.0661 63.9025 11.1726 64.2315 11.1726ZM68.1547 12V11.2045L70.6156 8.65483C70.8784 8.37784 71.095 8.13518 71.2654 7.92685C71.4383 7.71615 71.5673 7.5161 71.6525 7.3267C71.7377 7.13731 71.7804 6.93608 71.7804 6.72301C71.7804 6.48153 71.7235 6.2732 71.6099 6.09801C71.4963 5.92045 71.3412 5.78433 71.1447 5.68963C70.9482 5.59257 70.7269 5.54403 70.4806 5.54403C70.2202 5.54403 69.993 5.5973 69.7988 5.70384C69.6047 5.81037 69.4556 5.9607 69.3514 6.15483C69.2472 6.34896 69.1951 6.57623 69.1951 6.83665H68.1475C68.1475 6.39394 68.2493 6.00687 68.4529 5.67543C68.6565 5.34399 68.9359 5.08712 69.291 4.90483C69.6461 4.72017 70.0498 4.62784 70.502 4.62784C70.9589 4.62784 71.3613 4.71899 71.7093 4.90128C72.0597 5.0812 72.3332 5.32741 72.5297 5.63991C72.7261 5.95005 72.8244 6.30043 72.8244 6.69105C72.8244 6.96094 72.7735 7.22491 72.6717 7.48295C72.5723 7.741 72.3983 8.02865 72.1497 8.34588C71.9011 8.66075 71.5555 9.04309 71.1127 9.4929L69.6674 11.0057V11.0589H72.9416V12H68.1547Z" fill="#8F95B2"/>
<path fill-rule="evenodd" clip-rule="evenodd" d="M94.3083 2.875H83.6917C83.2425 2.875 82.875 3.2425 82.875 3.69167V11.0417C82.875 11.4908 83.2425 11.8583 83.6917 11.8583H85.325V14.3083C85.325 14.7575 85.6925 15.125 86.1417 15.125C86.3703 15.125 86.5745 15.0352 86.7215 14.8882L89.7432 11.8583H94.3083C94.7575 11.8583 95.125 11.4908 95.125 11.0417V3.69167C95.125 3.2425 94.7575 2.875 94.3083 2.875Z" fill="#8F95B2"/>
<path d="M103.459 4.72727V12H102.358V5.82812H102.315L100.575 6.96449V5.91335L102.39 4.72727H103.459ZM105.426 12V11.2045L107.887 8.65483C108.15 8.37784 108.366 8.13518 108.537 7.92685C108.71 7.71615 108.839 7.5161 108.924 7.3267C109.009 7.13731 109.052 6.93608 109.052 6.72301C109.052 6.48153 108.995 6.2732 108.881 6.09801C108.768 5.92045 108.613 5.78433 108.416 5.68963C108.22 5.59257 107.998 5.54403 107.752 5.54403C107.492 5.54403 107.264 5.5973 107.07 5.70384C106.876 5.81037 106.727 5.9607 106.623 6.15483C106.519 6.34896 106.467 6.57623 106.467 6.83665H105.419C105.419 6.39394 105.521 6.00687 105.724 5.67543C105.928 5.34399 106.207 5.08712 106.562 4.90483C106.918 4.72017 107.321 4.62784 107.773 4.62784C108.23 4.62784 108.633 4.71899 108.981 4.90128C109.331 5.0812 109.605 5.32741 109.801 5.63991C109.998 5.95005 110.096 6.30043 110.096 6.69105C110.096 6.96094 110.045 7.22491 109.943 7.48295C109.844 7.741 109.67 8.02865 109.421 8.34588C109.173 8.66075 108.827 9.04309 108.384 9.4929L106.939 11.0057V11.0589H110.213V12H105.426ZM113.96 12.0994C113.514 12.0994 113.114 12.0142 112.759 11.8438C112.406 11.6709 112.125 11.4342 111.914 11.1335C111.703 10.8329 111.591 10.4896 111.577 10.1037H112.642C112.668 10.4162 112.807 10.6731 113.058 10.8743C113.308 11.0755 113.609 11.1761 113.96 11.1761C114.239 11.1761 114.486 11.1122 114.702 10.9844C114.92 10.8542 115.09 10.6754 115.213 10.4482C115.339 10.2209 115.401 9.96165 115.401 9.67045C115.401 9.37453 115.337 9.11056 115.21 8.87855C115.082 8.64654 114.905 8.46425 114.68 8.33168C114.458 8.1991 114.202 8.13163 113.913 8.12926C113.693 8.12926 113.472 8.16714 113.249 8.2429C113.027 8.31866 112.847 8.41809 112.71 8.54119L111.705 8.39205L112.113 4.72727H116.112V5.66832H113.026L112.795 7.70312H112.837C112.979 7.56581 113.168 7.45099 113.402 7.35866C113.639 7.26634 113.892 7.22017 114.162 7.22017C114.605 7.22017 114.999 7.32552 115.344 7.53622C115.692 7.74692 115.966 8.03456 116.165 8.39915C116.366 8.76136 116.465 9.17803 116.463 9.64915C116.465 10.1203 116.359 10.5405 116.143 10.9098C115.93 11.2791 115.634 11.5703 115.256 11.7834C114.879 11.9941 114.447 12.0994 113.96 12.0994Z" fill="#8F95B2"/>
</svg>
