<svg width="51" height="14" viewBox="0 0 36 14" fill="none" xmlns="http://www.w3.org/2000/svg">
<rect x="0.25" y="0.25" width="35.5" height="13.5" rx="6.75" fill="#F3DFCC"/>
<rect x="0.25" y="0.25" width="35.5" height="13.5" rx="6.75" stroke="#B26D22" stroke-width="0.5"/>
<path d="M9.18342 10V5.09091H10.1071V5.87074H10.1582C10.2477 5.60653 10.4054 5.39879 10.6312 5.24751C10.8592 5.0941 11.117 5.0174 11.4047 5.0174C11.4643 5.0174 11.5346 5.01953 11.6156 5.02379C11.6987 5.02805 11.7637 5.03338 11.8105 5.03977V5.95384C11.7722 5.94318 11.704 5.93146 11.606 5.91868C11.508 5.90376 11.41 5.89631 11.312 5.89631C11.0861 5.89631 10.8848 5.94425 10.7079 6.04013C10.5332 6.13388 10.3947 6.26491 10.2924 6.43324C10.1902 6.59943 10.139 6.78906 10.139 7.00213V10H9.18342ZM14.5296 10.0991C14.0693 10.0991 13.6677 9.99361 13.3247 9.78267C12.9816 9.57173 12.7153 9.27663 12.5257 8.89737C12.336 8.51811 12.2412 8.07493 12.2412 7.56783C12.2412 7.05859 12.336 6.61328 12.5257 6.23189C12.7153 5.8505 12.9816 5.55433 13.3247 5.34339C13.6677 5.13246 14.0693 5.02699 14.5296 5.02699C14.9898 5.02699 15.3914 5.13246 15.7345 5.34339C16.0775 5.55433 16.3438 5.8505 16.5335 6.23189C16.7231 6.61328 16.8179 7.05859 16.8179 7.56783C16.8179 8.07493 16.7231 8.51811 16.5335 8.89737C16.3438 9.27663 16.0775 9.57173 15.7345 9.78267C15.3914 9.99361 14.9898 10.0991 14.5296 10.0991ZM14.5328 9.29688C14.8311 9.29688 15.0782 9.21804 15.2742 9.06037C15.4703 8.9027 15.6151 8.69283 15.7089 8.43075C15.8048 8.16868 15.8527 7.87997 15.8527 7.56463C15.8527 7.25142 15.8048 6.96378 15.7089 6.7017C15.6151 6.4375 15.4703 6.2255 15.2742 6.0657C15.0782 5.90589 14.8311 5.82599 14.5328 5.82599C14.2323 5.82599 13.983 5.90589 13.7849 6.0657C13.5889 6.2255 13.4429 6.4375 13.347 6.7017C13.2533 6.96378 13.2064 7.25142 13.2064 7.56463C13.2064 7.87997 13.2533 8.16868 13.347 8.43075C13.4429 8.69283 13.5889 8.9027 13.7849 9.06037C13.983 9.21804 14.2323 9.29688 14.5328 9.29688ZM19.3132 10.1087C19.0021 10.1087 18.7209 10.0511 18.4695 9.93608C18.218 9.81889 18.0188 9.6495 17.8718 9.42791C17.7269 9.20632 17.6545 8.93466 17.6545 8.61293C17.6545 8.33594 17.7077 8.10795 17.8143 7.92898C17.9208 7.75 18.0646 7.60831 18.2457 7.50391C18.4268 7.3995 18.6293 7.32067 18.853 7.2674C19.0767 7.21413 19.3047 7.17365 19.5369 7.14595C19.831 7.11186 20.0696 7.08416 20.2528 7.06286C20.4361 7.03942 20.5692 7.00213 20.6523 6.95099C20.7354 6.89986 20.777 6.81676 20.777 6.7017V6.67933C20.777 6.40021 20.6982 6.18395 20.5405 6.03054C20.3849 5.87713 20.1527 5.80043 19.8438 5.80043C19.522 5.80043 19.2685 5.8718 19.0831 6.01456C18.8999 6.15518 18.7731 6.31179 18.7028 6.48438L17.8047 6.27983C17.9112 5.98153 18.0668 5.74077 18.2713 5.55753C18.478 5.37216 18.7156 5.23793 18.984 5.15483C19.2525 5.0696 19.5348 5.02699 19.831 5.02699C20.027 5.02699 20.2347 5.05043 20.4542 5.0973C20.6758 5.14205 20.8825 5.22514 21.0742 5.34659C21.2681 5.46804 21.4268 5.64169 21.5504 5.86754C21.674 6.09126 21.7358 6.3821 21.7358 6.74006V10H20.8026V9.32884H20.7642C20.7024 9.45241 20.6097 9.57386 20.4862 9.69318C20.3626 9.8125 20.2038 9.91158 20.0099 9.99041C19.8161 10.0692 19.5838 10.1087 19.3132 10.1087ZM19.521 9.34162C19.7852 9.34162 20.011 9.28942 20.1985 9.18501C20.3881 9.08061 20.532 8.94425 20.63 8.77592C20.7301 8.60547 20.7802 8.4233 20.7802 8.2294V7.59659C20.7461 7.63068 20.68 7.66264 20.582 7.69247C20.4862 7.72017 20.3764 7.74467 20.2528 7.76598C20.1293 7.78516 20.0089 7.80327 19.8917 7.82031C19.7745 7.83523 19.6765 7.84801 19.5977 7.85866C19.4123 7.8821 19.2429 7.92152 19.0895 7.97692C18.9382 8.03232 18.8168 8.11222 18.7251 8.21662C18.6357 8.31889 18.5909 8.45526 18.5909 8.62571C18.5909 8.86222 18.6783 9.04119 18.853 9.16264C19.0277 9.28196 19.2504 9.34162 19.521 9.34162ZM24.8463 10.0959C24.45 10.0959 24.0963 9.99467 23.7852 9.79226C23.4763 9.58771 23.2334 9.29687 23.0566 8.91974C22.8818 8.54048 22.7945 8.08558 22.7945 7.55504C22.7945 7.0245 22.8829 6.57067 23.0597 6.19354C23.2387 5.81641 23.4838 5.5277 23.7948 5.32741C24.1059 5.12713 24.4585 5.02699 24.8527 5.02699C25.1574 5.02699 25.4024 5.07812 25.5878 5.1804C25.7753 5.28054 25.9202 5.39773 26.0225 5.53196C26.1269 5.66619 26.2078 5.78445 26.2654 5.88672H26.3229V3.45455H27.2785V10H26.3453V9.23615H26.2654C26.2078 9.34055 26.1247 9.45987 26.0161 9.59411C25.9095 9.72834 25.7625 9.84553 25.575 9.94567C25.3875 10.0458 25.1446 10.0959 24.8463 10.0959ZM25.0573 9.28089C25.3321 9.28089 25.5644 9.20845 25.754 9.06357C25.9458 8.91655 26.0906 8.71307 26.1887 8.45312C26.2888 8.19318 26.3389 7.89062 26.3389 7.54545C26.3389 7.20455 26.2899 6.90625 26.1919 6.65057C26.0938 6.39489 25.95 6.19567 25.7604 6.05291C25.5708 5.91016 25.3364 5.83878 25.0573 5.83878C24.7696 5.83878 24.5299 5.91335 24.3382 6.0625C24.1464 6.21165 24.0015 6.41513 23.9035 6.67294C23.8076 6.93075 23.7597 7.22159 23.7597 7.54545C23.7597 7.87358 23.8087 8.16868 23.9067 8.43075C24.0047 8.69283 24.1496 8.90057 24.3414 9.05398C24.5352 9.20526 24.7739 9.28089 25.0573 9.28089Z" fill="#5F380E"/>
</svg>
