<svg width="51" height="14" viewBox="0 0 51 14" fill="none" xmlns="http://www.w3.org/2000/svg">
<rect x="0.25" y="0.25" width="50.5" height="13.5" rx="6.75" fill="#E4CEFD"/>
<rect x="0.25" y="0.25" width="50.5" height="13.5" rx="6.75" stroke="#6A498E" stroke-width="0.5"/>
<path d="M12.613 6.28942L11.7469 6.44283C11.7107 6.33203 11.6531 6.22656 11.5743 6.12642C11.4976 6.02628 11.3932 5.94425 11.2611 5.88033C11.129 5.81641 10.9639 5.78445 10.7657 5.78445C10.4951 5.78445 10.2693 5.84517 10.0882 5.96662C9.90705 6.08594 9.8165 6.24041 9.8165 6.43004C9.8165 6.59411 9.87722 6.72621 9.99867 6.82635C10.1201 6.92649 10.3161 7.00852 10.5867 7.07244L11.3666 7.25142C11.8183 7.35582 12.1549 7.51669 12.3765 7.73402C12.5981 7.95135 12.7089 8.23366 12.7089 8.58097C12.7089 8.875 12.6237 9.13707 12.4532 9.36719C12.2849 9.59517 12.0494 9.77415 11.7469 9.90412C11.4465 10.0341 11.0981 10.0991 10.7018 10.0991C10.1521 10.0991 9.70357 9.98189 9.35627 9.74751C9.00897 9.51101 8.7959 9.17543 8.71706 8.74077L9.64071 8.60014C9.69824 8.84091 9.8165 9.02308 9.99547 9.14666C10.1744 9.26811 10.4078 9.32884 10.6954 9.32884C11.0086 9.32884 11.259 9.26385 11.4465 9.13388C11.634 9.00178 11.7277 8.84091 11.7277 8.65128C11.7277 8.49787 11.6702 8.36896 11.5551 8.26456C11.4422 8.16016 11.2686 8.08132 11.0342 8.02805L10.2032 7.84588C9.74512 7.74148 9.40634 7.57528 9.18688 7.3473C8.96955 7.11932 8.86088 6.83061 8.86088 6.48118C8.86088 6.19141 8.94185 5.93785 9.10378 5.72053C9.26571 5.5032 9.48944 5.33381 9.77495 5.21236C10.0605 5.08878 10.3875 5.02699 10.7561 5.02699C11.2867 5.02699 11.7043 5.14205 12.009 5.37216C12.3137 5.60014 12.515 5.90589 12.613 6.28942ZM15.8754 10.0991C15.3917 10.0991 14.9751 9.99574 14.6257 9.78906C14.2784 9.58026 14.0099 9.28729 13.8203 8.91016C13.6328 8.53089 13.5391 8.08665 13.5391 7.57741C13.5391 7.07457 13.6328 6.63139 13.8203 6.24787C14.0099 5.86435 14.2741 5.56499 14.6129 5.34979C14.9538 5.13459 15.3523 5.02699 15.8082 5.02699C16.0852 5.02699 16.3537 5.0728 16.6136 5.16442C16.8736 5.25604 17.1069 5.39986 17.3136 5.59588C17.5202 5.7919 17.6832 6.04652 17.8026 6.35973C17.9219 6.67081 17.9815 7.04901 17.9815 7.49432V7.8331H14.0792V7.11719H17.0451C17.0451 6.86577 16.994 6.64311 16.8917 6.44922C16.7894 6.2532 16.6456 6.09872 16.4602 5.9858C16.277 5.87287 16.0618 5.81641 15.8146 5.81641C15.5462 5.81641 15.3118 5.88246 15.1115 6.01456C14.9134 6.14453 14.7599 6.31499 14.6513 6.52592C14.5447 6.73473 14.4915 6.96165 14.4915 7.20668V7.76598C14.4915 8.09411 14.549 8.37322 14.6641 8.60334C14.7812 8.83345 14.9442 9.00923 15.1531 9.13068C15.3619 9.25 15.6058 9.30966 15.8849 9.30966C16.0661 9.30966 16.2312 9.28409 16.3803 9.23295C16.5295 9.17969 16.6584 9.10085 16.767 8.99645C16.8757 8.89205 16.9588 8.76314 17.0163 8.60973L17.9208 8.77273C17.8484 9.03906 17.7184 9.27237 17.5309 9.47266C17.3455 9.67081 17.1122 9.82528 16.831 9.93608C16.5518 10.0447 16.2333 10.0991 15.8754 10.0991ZM21.1096 10.0991C20.6345 10.0991 20.2254 9.99148 19.8824 9.77628C19.5415 9.55895 19.2794 9.25959 19.0961 8.8782C18.9129 8.4968 18.8213 8.06001 18.8213 7.56783C18.8213 7.06925 18.915 6.62926 19.1025 6.24787C19.29 5.86435 19.5542 5.56499 19.8952 5.34979C20.2361 5.13459 20.6377 5.02699 21.1001 5.02699C21.4729 5.02699 21.8053 5.09624 22.0972 5.23473C22.3891 5.37109 22.6246 5.56285 22.8035 5.81001C22.9846 6.05717 23.0922 6.34588 23.1263 6.67614H22.1963C22.1452 6.44602 22.028 6.24787 21.8447 6.08168C21.6636 5.91548 21.4207 5.83239 21.116 5.83239C20.8497 5.83239 20.6164 5.9027 20.4161 6.04332C20.218 6.18182 20.0635 6.37997 19.9527 6.63778C19.8419 6.89347 19.7865 7.19602 19.7865 7.54545C19.7865 7.90341 19.8408 8.21236 19.9495 8.4723C20.0581 8.73224 20.2116 8.93359 20.4097 9.07635C20.61 9.21911 20.8454 9.29048 21.116 9.29048C21.2971 9.29048 21.4612 9.25746 21.6082 9.19141C21.7574 9.12322 21.882 9.02628 21.9822 8.90057C22.0844 8.77486 22.1558 8.62358 22.1963 8.44673H23.1263C23.0922 8.7642 22.9889 9.04759 22.8163 9.29688C22.6437 9.54616 22.4126 9.74219 22.1228 9.88494C21.8351 10.0277 21.4974 10.0991 21.1096 10.0991ZM27.258 7.96413V5.09091H28.2168V10H27.2772V9.14986H27.226C27.1131 9.41193 26.932 9.63033 26.6827 9.80504C26.4355 9.97763 26.1277 10.0639 25.7591 10.0639C25.4437 10.0639 25.1646 9.99467 24.9217 9.85618C24.6809 9.71555 24.4913 9.50781 24.3528 9.23295C24.2164 8.9581 24.1483 8.61825 24.1483 8.21342V5.09091H25.1039V8.09837C25.1039 8.43288 25.1966 8.69922 25.3819 8.89737C25.5673 9.09553 25.8081 9.1946 26.1042 9.1946C26.2832 9.1946 26.4611 9.14986 26.638 9.06037C26.8169 8.97088 26.965 8.83558 27.0822 8.65447C27.2015 8.47337 27.2601 8.24325 27.258 7.96413ZM29.5008 10V5.09091H30.4244V5.87074H30.4756C30.5651 5.60653 30.7227 5.39879 30.9486 5.24751C31.1766 5.0941 31.4344 5.0174 31.722 5.0174C31.7817 5.0174 31.852 5.01953 31.933 5.02379C32.0161 5.02805 32.0811 5.03338 32.1279 5.03977V5.95384C32.0896 5.94318 32.0214 5.93146 31.9234 5.91868C31.8254 5.90376 31.7274 5.89631 31.6294 5.89631C31.4035 5.89631 31.2021 5.94425 31.0253 6.04013C30.8506 6.13388 30.7121 6.26491 30.6098 6.43324C30.5075 6.59943 30.4564 6.78906 30.4564 7.00213V10H29.5008ZM32.9549 10V5.09091H33.9105V10H32.9549ZM33.4375 4.33345C33.2713 4.33345 33.1286 4.27805 33.0092 4.16726C32.892 4.05433 32.8335 3.9201 32.8335 3.76456C32.8335 3.60689 32.892 3.47266 33.0092 3.36186C33.1286 3.24893 33.2713 3.19247 33.4375 3.19247C33.6037 3.19247 33.7454 3.24893 33.8626 3.36186C33.9819 3.47266 34.0415 3.60689 34.0415 3.76456C34.0415 3.9201 33.9819 4.05433 33.8626 4.16726C33.7454 4.27805 33.6037 4.33345 33.4375 4.33345ZM37.4877 5.09091V5.85795H34.8062V5.09091H37.4877ZM35.5253 3.91477H36.4809V8.55859C36.4809 8.74396 36.5086 8.88352 36.564 8.97727C36.6194 9.06889 36.6908 9.13175 36.7781 9.16584C36.8676 9.1978 36.9646 9.21378 37.069 9.21378C37.1457 9.21378 37.2128 9.20845 37.2703 9.1978C37.3279 9.18714 37.3726 9.17862 37.4046 9.17223L37.5771 9.96165C37.5218 9.98295 37.4429 10.0043 37.3406 10.0256C37.2384 10.049 37.1105 10.0618 36.9571 10.0639C36.7057 10.0682 36.4713 10.0234 36.254 9.92969C36.0367 9.83594 35.8609 9.69105 35.7267 9.49503C35.5924 9.29901 35.5253 9.05291 35.5253 8.75675V3.91477ZM39.1488 11.8409C39.006 11.8409 38.8761 11.8292 38.7589 11.8058C38.6417 11.7844 38.5543 11.761 38.4968 11.7354L38.7269 10.9524C38.9016 10.9993 39.0572 11.0195 39.1935 11.0131C39.3299 11.0067 39.4503 10.9556 39.5547 10.8597C39.6612 10.7638 39.755 10.6072 39.8359 10.3899L39.9542 10.0639L38.158 5.09091H39.1808L40.424 8.90057H40.4751L41.7184 5.09091H42.7443L40.7212 10.6552C40.6275 10.9109 40.5082 11.1271 40.3633 11.304C40.2184 11.483 40.0458 11.6172 39.8455 11.7067C39.6452 11.7962 39.413 11.8409 39.1488 11.8409Z" fill="#472270"/>
</svg>
