<svg width="51" height="14" viewBox="0 0 42 14" fill="none" xmlns="http://www.w3.org/2000/svg">
<rect x="0.25" y="0.25" width="41.5" height="13.5" rx="6.75" fill="#F5E9CB"/>
<rect x="0.25" y="0.25" width="41.5" height="13.5" rx="6.75" stroke="#A07C22" stroke-width="0.5"/>
<path d="M11.0589 5.09091V5.85795H8.37749V5.09091H11.0589ZM9.09659 3.91477H10.0522V8.55859C10.0522 8.74396 10.0799 8.88352 10.1353 8.97727C10.1907 9.06889 10.2621 9.13175 10.3494 9.16584C10.4389 9.1978 10.5359 9.21378 10.6403 9.21378C10.717 9.21378 10.7841 9.20845 10.8416 9.1978C10.8991 9.18714 10.9439 9.17862 10.9759 9.17223L11.1484 9.96165C11.093 9.98295 11.0142 10.0043 10.9119 10.0256C10.8097 10.049 10.6818 10.0618 10.5284 10.0639C10.277 10.0682 10.0426 10.0234 9.82528 9.92969C9.60795 9.83594 9.43217 9.69105 9.29794 9.49503C9.16371 9.29901 9.09659 9.05291 9.09659 8.75675V3.91477ZM12.116 10V5.09091H13.0397V5.87074H13.0908C13.1803 5.60653 13.338 5.39879 13.5638 5.24751C13.7918 5.0941 14.0496 5.0174 14.3373 5.0174C14.3969 5.0174 14.4672 5.01953 14.5482 5.02379C14.6313 5.02805 14.6963 5.03338 14.7432 5.03977V5.95384C14.7048 5.94318 14.6366 5.93146 14.5386 5.91868C14.4406 5.90376 14.3426 5.89631 14.2446 5.89631C14.0187 5.89631 13.8174 5.94425 13.6405 6.04013C13.4658 6.13388 13.3273 6.26491 13.2251 6.43324C13.1228 6.59943 13.0716 6.78906 13.0716 7.00213V10H12.116ZM16.9548 10.1087C16.6437 10.1087 16.3625 10.0511 16.1111 9.93608C15.8596 9.81889 15.6604 9.6495 15.5134 9.42791C15.3685 9.20632 15.2961 8.93466 15.2961 8.61293C15.2961 8.33594 15.3493 8.10795 15.4559 7.92898C15.5624 7.75 15.7062 7.60831 15.8873 7.50391C16.0684 7.3995 16.2709 7.32067 16.4946 7.2674C16.7183 7.21413 16.9463 7.17365 17.1785 7.14595C17.4726 7.11186 17.7112 7.08416 17.8944 7.06286C18.0777 7.03942 18.2108 7.00213 18.2939 6.95099C18.377 6.89986 18.4186 6.81676 18.4186 6.7017V6.67933C18.4186 6.40021 18.3398 6.18395 18.1821 6.03054C18.0265 5.87713 17.7943 5.80043 17.4854 5.80043C17.1636 5.80043 16.9101 5.8718 16.7247 6.01456C16.5415 6.15518 16.4147 6.31179 16.3444 6.48438L15.4463 6.27983C15.5528 5.98153 15.7084 5.74077 15.9129 5.55753C16.1196 5.37216 16.3572 5.23793 16.6256 5.15483C16.8941 5.0696 17.1764 5.02699 17.4726 5.02699C17.6686 5.02699 17.8763 5.05043 18.0958 5.0973C18.3174 5.14205 18.5241 5.22514 18.7158 5.34659C18.9097 5.46804 19.0684 5.64169 19.192 5.86754C19.3156 6.09126 19.3774 6.3821 19.3774 6.74006V10H18.4442V9.32884H18.4058C18.344 9.45241 18.2513 9.57386 18.1278 9.69318C18.0042 9.8125 17.8454 9.91158 17.6515 9.99041C17.4577 10.0692 17.2254 10.1087 16.9548 10.1087ZM17.1626 9.34162C17.4268 9.34162 17.6526 9.28942 17.8401 9.18501C18.0297 9.08061 18.1736 8.94425 18.2716 8.77592C18.3717 8.60547 18.4218 8.4233 18.4218 8.2294V7.59659C18.3877 7.63068 18.3216 7.66264 18.2236 7.69247C18.1278 7.72017 18.018 7.74467 17.8944 7.76598C17.7709 7.78516 17.6505 7.80327 17.5333 7.82031C17.4161 7.83523 17.3181 7.84801 17.2393 7.85866C17.0539 7.8821 16.8845 7.92152 16.7311 7.97692C16.5798 8.03232 16.4584 8.11222 16.3667 8.21662C16.2773 8.31889 16.2325 8.45526 16.2325 8.62571C16.2325 8.86222 16.3199 9.04119 16.4946 9.16264C16.6693 9.28196 16.892 9.34162 17.1626 9.34162ZM22.9865 5.09091V5.85795H20.2124V5.09091H22.9865ZM20.973 10V4.52202C20.973 4.2152 21.0401 3.96058 21.1744 3.75817C21.3086 3.55362 21.4865 3.40128 21.7081 3.30114C21.9297 3.19886 22.1705 3.14773 22.4304 3.14773C22.6222 3.14773 22.7862 3.16371 22.9226 3.19567C23.0589 3.2255 23.1602 3.2532 23.2262 3.27876L23.0025 4.0522C22.9577 4.03942 22.9002 4.0245 22.8299 4.00746C22.7596 3.98828 22.6744 3.97869 22.5742 3.97869C22.342 3.97869 22.1758 4.03622 22.0756 4.15128C21.9776 4.26634 21.9286 4.43253 21.9286 4.64986V10H20.973ZM26.3088 5.09091V5.85795H23.5346V5.09091H26.3088ZM24.2953 10V4.52202C24.2953 4.2152 24.3624 3.96058 24.4966 3.75817C24.6309 3.55362 24.8088 3.40128 25.0304 3.30114C25.252 3.19886 25.4927 3.14773 25.7527 3.14773C25.9444 3.14773 26.1085 3.16371 26.2449 3.19567C26.3812 3.2255 26.4824 3.2532 26.5485 3.27876L26.3248 4.0522C26.28 4.03942 26.2225 4.0245 26.1522 4.00746C26.0819 3.98828 25.9966 3.97869 25.8965 3.97869C25.6642 3.97869 25.498 4.03622 25.3979 4.15128C25.2999 4.26634 25.2509 4.43253 25.2509 4.64986V10H24.2953ZM27.2947 10V5.09091H28.2504V10H27.2947ZM27.7773 4.33345C27.6112 4.33345 27.4684 4.27805 27.3491 4.16726C27.2319 4.05433 27.1733 3.9201 27.1733 3.76456C27.1733 3.60689 27.2319 3.47266 27.3491 3.36186C27.4684 3.24893 27.6112 3.19247 27.7773 3.19247C27.9435 3.19247 28.0852 3.24893 28.2024 3.36186C28.3217 3.47266 28.3814 3.60689 28.3814 3.76456C28.3814 3.9201 28.3217 4.05433 28.2024 4.16726C28.0852 4.27805 27.9435 4.33345 27.7773 4.33345ZM31.6038 10.0991C31.1286 10.0991 30.7195 9.99148 30.3765 9.77628C30.0356 9.55895 29.7735 9.25959 29.5903 8.8782C29.407 8.4968 29.3154 8.06001 29.3154 7.56783C29.3154 7.06925 29.4092 6.62926 29.5967 6.24787C29.7842 5.86435 30.0484 5.56499 30.3893 5.34979C30.7302 5.13459 31.1318 5.02699 31.5942 5.02699C31.9671 5.02699 32.2994 5.09624 32.5914 5.23473C32.8833 5.37109 33.1187 5.56285 33.2977 5.81001C33.4788 6.05717 33.5864 6.34588 33.6205 6.67614H32.6904C32.6393 6.44602 32.5221 6.24787 32.3389 6.08168C32.1578 5.91548 31.9149 5.83239 31.6102 5.83239C31.3438 5.83239 31.1105 5.9027 30.9102 6.04332C30.7121 6.18182 30.5576 6.37997 30.4468 6.63778C30.336 6.89347 30.2806 7.19602 30.2806 7.54545C30.2806 7.90341 30.335 8.21236 30.4436 8.4723C30.5523 8.73224 30.7057 8.93359 30.9039 9.07635C31.1041 9.21911 31.3396 9.29048 31.6102 9.29048C31.7913 9.29048 31.9553 9.25746 32.1024 9.19141C32.2515 9.12322 32.3762 9.02628 32.4763 8.90057C32.5786 8.77486 32.6499 8.62358 32.6904 8.44673H33.6205C33.5864 8.7642 33.483 9.04759 33.3105 9.29688C33.1379 9.54616 32.9067 9.74219 32.6169 9.88494C32.3293 10.0277 31.9916 10.0991 31.6038 10.0991Z" fill="#594510"/>
</svg>
