<svg width="51" height="14" viewBox="0 0 41 14" fill="none" xmlns="http://www.w3.org/2000/svg">
<rect x="0.25" y="0.25" width="40.5" height="13.5" rx="6.75" fill="#D1E4FA"/>
<rect x="0.25" y="0.25" width="40.5" height="13.5" rx="6.75" stroke="#2863B8" stroke-width="0.5"/>
<path d="M10.1237 10L8.67907 5.09091H9.66664L10.6286 8.69602H10.6766L11.6418 5.09091H12.6294L13.5882 8.68004H13.6361L14.5917 5.09091H15.5793L14.1379 10H13.1631L12.1659 6.45561H12.0924L11.0953 10H10.1237ZM17.9148 10.1087C17.6037 10.1087 17.3224 10.0511 17.071 9.93608C16.8196 9.81889 16.6204 9.6495 16.4734 9.42791C16.3285 9.20632 16.256 8.93466 16.256 8.61293C16.256 8.33594 16.3093 8.10795 16.4158 7.92898C16.5224 7.75 16.6662 7.60831 16.8473 7.50391C17.0284 7.3995 17.2308 7.32067 17.4545 7.2674C17.6783 7.21413 17.9063 7.17365 18.1385 7.14595C18.4325 7.11186 18.6712 7.08416 18.8544 7.06286C19.0376 7.03942 19.1708 7.00213 19.2539 6.95099C19.337 6.89986 19.3786 6.81676 19.3786 6.7017V6.67933C19.3786 6.40021 19.2997 6.18395 19.142 6.03054C18.9865 5.87713 18.7543 5.80043 18.4453 5.80043C18.1236 5.80043 17.87 5.8718 17.6847 6.01456C17.5014 6.15518 17.3746 6.31179 17.3043 6.48438L16.4062 6.27983C16.5128 5.98153 16.6683 5.74077 16.8729 5.55753C17.0795 5.37216 17.3171 5.23793 17.5856 5.15483C17.854 5.0696 18.1364 5.02699 18.4325 5.02699C18.6286 5.02699 18.8363 5.05043 19.0558 5.0973C19.2773 5.14205 19.484 5.22514 19.6758 5.34659C19.8697 5.46804 20.0284 5.64169 20.152 5.86754C20.2756 6.09126 20.3374 6.3821 20.3374 6.74006V10H19.4041V9.32884H19.3658C19.304 9.45241 19.2113 9.57386 19.0877 9.69318C18.9641 9.8125 18.8054 9.91158 18.6115 9.99041C18.4176 10.0692 18.1854 10.1087 17.9148 10.1087ZM18.1225 9.34162C18.3867 9.34162 18.6126 9.28942 18.8001 9.18501C18.9897 9.08061 19.1335 8.94425 19.2315 8.77592C19.3317 8.60547 19.3817 8.4233 19.3817 8.2294V7.59659C19.3477 7.63068 19.2816 7.66264 19.1836 7.69247C19.0877 7.72017 18.978 7.74467 18.8544 7.76598C18.7308 7.78516 18.6104 7.80327 18.4933 7.82031C18.3761 7.83523 18.2781 7.84801 18.1992 7.85866C18.0138 7.8821 17.8445 7.92152 17.6911 7.97692C17.5398 8.03232 17.4183 8.11222 17.3267 8.21662C17.2372 8.31889 17.1925 8.45526 17.1925 8.62571C17.1925 8.86222 17.2798 9.04119 17.4545 9.16264C17.6293 9.28196 17.8519 9.34162 18.1225 9.34162ZM23.9017 5.09091V5.85795H21.2203V5.09091H23.9017ZM21.9394 3.91477H22.895V8.55859C22.895 8.74396 22.9227 8.88352 22.9781 8.97727C23.0335 9.06889 23.1048 9.13175 23.1922 9.16584C23.2817 9.1978 23.3786 9.21378 23.483 9.21378C23.5597 9.21378 23.6269 9.20845 23.6844 9.1978C23.7419 9.18714 23.7867 9.17862 23.8186 9.17223L23.9912 9.96165C23.9358 9.98295 23.857 10.0043 23.7547 10.0256C23.6524 10.049 23.5246 10.0618 23.3712 10.0639C23.1198 10.0682 22.8854 10.0234 22.6681 9.92969C22.4507 9.83594 22.2749 9.69105 22.1407 9.49503C22.0065 9.29901 21.9394 9.05291 21.9394 8.75675V3.91477ZM27.0218 10.0991C26.5382 10.0991 26.1216 9.99574 25.7722 9.78906C25.4249 9.58026 25.1564 9.28729 24.9668 8.91016C24.7793 8.53089 24.6855 8.08665 24.6855 7.57741C24.6855 7.07457 24.7793 6.63139 24.9668 6.24787C25.1564 5.86435 25.4206 5.56499 25.7594 5.34979C26.1003 5.13459 26.4988 5.02699 26.9547 5.02699C27.2317 5.02699 27.5002 5.0728 27.7601 5.16442C28.0201 5.25604 28.2534 5.39986 28.46 5.59588C28.6667 5.7919 28.8297 6.04652 28.949 6.35973C29.0684 6.67081 29.128 7.04901 29.128 7.49432V7.8331H25.2257V7.11719H28.1916C28.1916 6.86577 28.1404 6.64311 28.0382 6.44922C27.9359 6.2532 27.7921 6.09872 27.6067 5.9858C27.4235 5.87287 27.2083 5.81641 26.9611 5.81641C26.6926 5.81641 26.4583 5.88246 26.258 6.01456C26.0598 6.14453 25.9064 6.31499 25.7978 6.52592C25.6912 6.73473 25.638 6.96165 25.638 7.20668V7.76598C25.638 8.09411 25.6955 8.37322 25.8105 8.60334C25.9277 8.83345 26.0907 9.00923 26.2995 9.13068C26.5083 9.25 26.7523 9.30966 27.0314 9.30966C27.2125 9.30966 27.3777 9.28409 27.5268 9.23295C27.676 9.17969 27.8049 9.10085 27.9135 8.99645C28.0222 8.89205 28.1053 8.76314 28.1628 8.60973L29.0673 8.77273C28.9949 9.03906 28.8649 9.27237 28.6774 9.47266C28.492 9.67081 28.2587 9.82528 27.9775 9.93608C27.6983 10.0447 27.3798 10.0991 27.0218 10.0991ZM30.1883 10V5.09091H31.1119V5.87074H31.1631C31.2526 5.60653 31.4102 5.39879 31.6361 5.24751C31.8641 5.0941 32.1219 5.0174 32.4095 5.0174C32.4692 5.0174 32.5395 5.01953 32.6205 5.02379C32.7036 5.02805 32.7686 5.03338 32.8154 5.03977V5.95384C32.7771 5.94318 32.7089 5.93146 32.6109 5.91868C32.5129 5.90376 32.4149 5.89631 32.3169 5.89631C32.091 5.89631 31.8896 5.94425 31.7128 6.04013C31.5381 6.13388 31.3996 6.26491 31.2973 6.43324C31.195 6.59943 31.1439 6.78906 31.1439 7.00213V10H30.1883Z" fill="#1F4781"/>
</svg>
